<svg width="27" height="27" viewBox="0 0 27 27" fill="none" xmlns="http://www.w3.org/2000/svg">
<path d="M24.4126 22.815L13.6126 12.015L15.1876 10.4175L15.9976 11.2163C16.1017 11.3206 16.2253 11.4033 16.3614 11.4598C16.4975 11.5162 16.6434 11.5453 16.7908 11.5453C16.9381 11.5453 17.084 11.5162 17.2201 11.4598C17.3562 11.4033 17.4798 11.3206 17.5839 11.2163L18.3826 10.4175C18.4869 10.3134 18.5697 10.1898 18.6261 10.0537C18.6826 9.91762 18.7116 9.77173 18.7116 9.62439C18.7116 9.47705 18.6826 9.33116 18.6261 9.19506C18.5697 9.05897 18.4869 8.93534 18.3826 8.83126L12.0151 2.46377C11.9111 2.35947 11.7874 2.27673 11.6513 2.22028C11.5152 2.16382 11.3694 2.13477 11.222 2.13477C11.0747 2.13477 10.9288 2.16382 10.7927 2.22028C10.6566 2.27673 10.533 2.35947 10.4289 2.46377L9.63014 3.26252C9.19139 3.70127 9.19139 4.41002 9.63014 4.84876L10.4289 5.62502L8.83139 7.23376C8.72731 7.12947 8.60368 7.04673 8.46759 6.99028C8.33149 6.93382 8.1856 6.90477 8.03826 6.90477C7.89092 6.90477 7.74503 6.93382 7.60893 6.99028C7.47284 7.04673 7.34921 7.12947 7.24514 7.23376C6.80639 7.67251 6.80639 8.39251 7.24514 8.83126L5.65889 10.4175L4.86014 9.61876C4.42139 9.18001 3.70139 9.18001 3.26264 9.61876L2.47514 10.4175C2.03639 10.8563 2.03639 11.5763 2.47514 12.015L8.83139 18.3713C9.27014 18.81 9.99014 18.81 10.4289 18.3713L11.2164 17.5838C11.3232 17.48 11.4081 17.3558 11.4661 17.2186C11.5241 17.0814 11.554 16.934 11.554 16.785C11.554 16.6361 11.5241 16.4886 11.4661 16.3514C11.4081 16.2142 11.3232 16.0901 11.2164 15.9863L10.4289 15.1875L12.0151 13.6013L22.8264 24.4125C22.9305 24.5168 23.0541 24.5995 23.1902 24.656C23.3263 24.7125 23.4722 24.7415 23.6195 24.7415C23.7669 24.7415 23.9127 24.7125 24.0488 24.656C24.1849 24.5995 24.3086 24.5168 24.4126 24.4125C24.8514 23.9738 24.8514 23.2538 24.4126 22.815ZM4.50014 21.375C3.9034 21.375 3.3311 21.6121 2.90915 22.034C2.48719 22.456 2.25014 23.0283 2.25014 23.625V24.75H13.5001V23.625C13.5001 23.0283 13.2631 22.456 12.8411 22.034C12.4192 21.6121 11.8469 21.375 11.2501 21.375H4.50014Z" fill="white"/>
</svg>
