<svg width="24" height="24" viewBox="0 0 24 24" fill="none" xmlns="http://www.w3.org/2000/svg">
<path d="M12.0002 8C13.8567 8 15.6372 8.7375 16.95 10.0503C18.2627 11.363 19.0002 13.1435 19.0002 15C19.0002 16.8565 18.2627 18.637 16.95 19.9497C15.6372 21.2625 13.8567 22 12.0002 22C10.1437 22 8.36322 21.2625 7.05047 19.9497C5.73772 18.637 5.00022 16.8565 5.00022 15C5.00022 13.1435 5.73772 11.363 7.05047 10.0503C8.36322 8.7375 10.1437 8 12.0002 8ZM12.0002 13C11.4698 13 10.9611 13.2107 10.586 13.5858C10.2109 13.9609 10.0002 14.4696 10.0002 15C10.0002 15.5304 10.2109 16.0391 10.586 16.4142C10.9611 16.7893 11.4698 17 12.0002 17C12.5307 17 13.0394 16.7893 13.4144 16.4142C13.7895 16.0391 14.0002 15.5304 14.0002 15C14.0002 14.4696 13.7895 13.9609 13.4144 13.5858C13.0394 13.2107 12.5307 13 12.0002 13ZM9.42022 2C9.74489 1.99997 10.0647 2.07898 10.352 2.23021C10.6393 2.38144 10.8855 2.60034 11.0692 2.868L11.1562 3.008L12.8912 6.044C11.6824 5.92198 10.4614 6.0468 9.30232 6.41088C8.14321 6.77496 7.07015 7.37071 6.14822 8.162L5.91622 8.368L3.55922 4.244C3.43424 4.02547 3.36628 3.77899 3.36159 3.52729C3.3569 3.27559 3.41563 3.02675 3.53238 2.80371C3.64913 2.58068 3.82014 2.39061 4.02965 2.25103C4.23915 2.11144 4.48042 2.02684 4.73122 2.005L4.86022 2H9.42022ZM19.1382 2C19.401 1.99991 19.6592 2.06884 19.8869 2.1999C20.1146 2.33096 20.304 2.51955 20.4359 2.74678C20.5679 2.97402 20.6378 3.23192 20.6387 3.49468C20.6397 3.75744 20.5715 4.01584 20.4412 4.244L18.0842 8.368C17.2447 7.59678 16.2664 6.99206 15.2012 6.586L13.1562 3.008C13.1098 2.92644 13.0576 2.84824 13.0002 2.774C13.1871 2.53307 13.4267 2.33808 13.7005 2.20393C13.9744 2.06978 14.2753 2.00003 14.5802 2H19.1382Z" fill="#203C77"/>
</svg>
