<svg width="24" height="24" viewBox="0 0 24 24" fill="none" xmlns="http://www.w3.org/2000/svg">
<g clip-path="url(#clip0_1103_954)">
<path d="M3.04673 9.79632C2.8873 9.63692 2.76083 9.44769 2.67455 9.23941C2.58827 9.03114 2.54386 8.8079 2.54386 8.58246C2.54386 8.35702 2.58827 8.13379 2.67455 7.92551C2.76083 7.71724 2.8873 7.528 3.04673 7.36861L9.91252 0.502795C10.2345 0.180861 10.6711 -3.39213e-09 11.1264 0C11.5817 3.39213e-09 12.0183 0.180861 12.3402 0.502795C12.6622 0.824729 12.843 1.26137 12.843 1.71665C12.843 2.17193 12.6622 2.60857 12.3402 2.9305L5.47443 9.79632C5.31504 9.95574 5.1258 10.0822 4.91753 10.1685C4.70925 10.2548 4.48602 10.2992 4.26058 10.2992C4.03514 10.2992 3.81191 10.2548 3.60363 10.1685C3.39536 10.0822 3.20612 9.95574 3.04673 9.79632ZM23.4971 11.6597C23.3377 11.5003 23.1485 11.3738 22.9402 11.2876C22.7319 11.2013 22.5087 11.1569 22.2833 11.1569C22.0578 11.1569 21.8346 11.2013 21.6263 11.2876C21.4181 11.3738 21.2288 11.5003 21.0694 11.6597L14.2036 18.5255C14.0442 18.6849 13.9177 18.8742 13.8315 19.0825C13.7452 19.2907 13.7008 19.514 13.7008 19.7394C13.7008 19.9648 13.7452 20.1881 13.8315 20.3964C13.9177 20.6046 14.0442 20.7939 14.2036 20.9533C14.363 21.1127 14.5523 21.2392 14.7605 21.3254C14.9688 21.4117 15.192 21.4561 15.4175 21.4561C15.6429 21.4561 15.8662 21.4117 16.0744 21.3254C16.2827 21.2392 16.4719 21.1127 16.6313 20.9533L23.4971 14.0874C23.6566 13.9281 23.783 13.7388 23.8693 13.5305C23.9556 13.3223 24 13.099 24 12.8736C24 12.6482 23.9556 12.4249 23.8693 12.2166C23.783 12.0084 23.6566 11.8191 23.4971 11.6597ZM19.7306 9.96474L14.0352 4.26934C13.9954 4.22944 13.948 4.19779 13.8959 4.17619C13.8438 4.1546 13.788 4.14348 13.7316 4.14348C13.6752 4.14348 13.6194 4.1546 13.5673 4.17619C13.5152 4.19779 13.4679 4.22944 13.428 4.26934L6.81326 10.8841C6.77336 10.924 6.74171 10.9713 6.72012 11.0234C6.69852 11.0755 6.68741 11.1313 6.68741 11.1877C6.68741 11.2441 6.69852 11.2999 6.72012 11.352C6.74171 11.4041 6.77336 11.4515 6.81326 11.4913L8.44388 13.1252L0.47206 21.1013C0.163752 21.4258 -0.00558965 21.8579 0.000140837 22.3055C0.00587132 22.7531 0.186221 23.1807 0.502736 23.4973C0.819251 23.8138 1.24689 23.9941 1.69447 23.9999C2.14206 24.0056 2.57417 23.8362 2.89869 23.5279L10.8748 15.5561L12.5086 17.1899C12.5485 17.2298 12.5958 17.2615 12.6479 17.2831C12.7 17.3047 12.7559 17.3158 12.8122 17.3158C12.8686 17.3158 12.9245 17.3047 12.9766 17.2831C13.0287 17.2615 13.076 17.2298 13.1158 17.1899L19.7306 10.5752C19.771 10.5352 19.803 10.4877 19.8249 10.4353C19.8468 10.3829 19.8581 10.3267 19.8581 10.2699C19.8581 10.2132 19.8468 10.157 19.8249 10.1046C19.803 10.0522 19.771 10.0047 19.7306 9.96474Z" fill="#203C77"/>
</g>
<defs>
<clipPath id="clip0_1103_954">
<rect width="24" height="24" fill="white"/>
</clipPath>
</defs>
</svg>
