<svg width="20" height="18" viewBox="0 0 20 18" fill="none" xmlns="http://www.w3.org/2000/svg">
<path d="M2 16H18V14H2V16ZM6 10H8V7C8 6.45 8.196 5.97933 8.588 5.588C8.98 5.19667 9.45067 5.00067 10 5V3C8.9 3 7.95833 3.39167 7.175 4.175C6.39167 4.95833 6 5.9 6 7V10ZM5 12H15V7C15 5.61667 14.5123 4.43767 13.537 3.463C12.5617 2.48833 11.3827 2.00067 10 2C8.61733 1.99933 7.43833 2.487 6.463 3.463C5.48767 4.439 5 5.618 5 7V12ZM2 18C1.45 18 0.979333 17.8043 0.588 17.413C0.196667 17.0217 0.000666667 16.5507 0 16V14C0 13.45 0.196 12.9793 0.588 12.588C0.98 12.1967 1.45067 12.0007 2 12H3V7C3 5.05 3.67933 3.396 5.038 2.038C6.39667 0.680001 8.05067 0.000667157 10 4.90196e-07C11.9493 -0.000666176 13.6037 0.678667 14.963 2.038C16.3223 3.39733 17.0013 5.05133 17 7V12H18C18.55 12 19.021 12.196 19.413 12.588C19.805 12.98 20.0007 13.4507 20 14V16C20 16.55 19.8043 17.021 19.413 17.413C19.0217 17.805 18.5507 18.0007 18 18H2Z" fill="#EB9292"/>
</svg>
