<svg width="23" height="23" viewBox="0 0 23 23" fill="none" xmlns="http://www.w3.org/2000/svg">
<path d="M21.2058 15.0039L14.7299 14.7285C14.5228 14.7124 13.6562 14.6742 13.6562 13.5664C13.6562 12.4968 14.517 12.4285 14.7407 12.4038L21.2058 12.1289C21.775 12.1347 22.2812 12.7771 22.2812 13.5664C22.2812 14.3557 21.775 14.9981 21.2058 15.0039ZM14.8516 9.08904L19.6466 8.71484C20.2148 8.71484 20.8438 9.46414 20.8438 10.2368V10.2516C20.8438 10.9847 20.3433 11.5822 19.7261 11.5898L14.8543 11.5121C13.6563 11.3652 13.6562 10.6388 13.6562 10.3266C13.6562 9.29883 14.6355 9.10701 14.8516 9.08904ZM18.9503 21.5625L14.9356 21.1613C13.8359 21.1196 13.6562 20.3864 13.6562 19.9269C13.6562 19.1012 14.2587 18.8218 14.8543 18.8218L18.9422 18.687C19.5954 18.6974 20.1246 19.3384 20.1246 20.1245C20.1246 20.9107 19.6003 21.5472 18.9503 21.5625ZM20.4938 18.3506L14.8157 18.0716C14.3939 18.0433 13.6562 17.9369 13.6562 16.887C13.6562 16.348 13.8517 15.7366 14.7793 15.6503L20.4929 15.476C21.0841 15.4823 21.5625 16.082 21.5625 16.8866C21.5625 17.6911 21.0841 18.3434 20.4938 18.3501V18.3506Z" fill="#203C77"/>
<path d="M6.2592 10.46L6.30412 10.3701C6.23912 10.5077 6.1328 10.6215 6 10.6958C6.10416 10.6393 6.19309 10.5583 6.2592 10.46Z" fill="#203C77"/>
<path d="M14.198 2.36379C13.7744 1.76633 13.0723 1.4375 12.2188 1.4375C12.0853 1.43749 11.9545 1.47463 11.8409 1.54477C11.7274 1.6149 11.6356 1.71526 11.5759 1.83461C11.4412 2.10729 10.8909 2.91273 10.3096 3.76221C9.50098 4.945 8.49697 6.41574 7.82854 7.57158L7.8227 7.58191C6.9027 9.17619 6.45932 10.0495 6.30344 10.3671L6.25852 10.4569C6.19199 10.5549 6.10276 10.6354 5.99842 10.6914C5.89493 10.7491 5.77864 10.78 5.66016 10.7812H4.52318C4.02358 10.7812 3.52887 10.8797 3.06729 11.0708C2.60571 11.262 2.18632 11.5423 1.83304 11.8955C1.11957 12.609 0.71875 13.5767 0.71875 14.5857V16.3201C0.718691 16.8198 0.817052 17.3145 1.00822 17.7761C1.19938 18.2378 1.4796 18.6572 1.83288 19.0105C2.18616 19.3639 2.60558 19.6441 3.06719 19.8354C3.52879 20.0266 4.02354 20.125 4.52318 20.125H6.71492C6.86793 20.1256 7.01746 20.1707 7.14527 20.2548C8.17578 20.9278 10.1227 21.5625 12.2188 21.5625C12.5534 21.5625 12.8562 21.5562 13.1293 21.5454C13.1944 21.5431 13.2576 21.5232 13.3122 21.4877C13.3668 21.4523 13.4108 21.4026 13.4394 21.3441C13.468 21.2857 13.4802 21.2205 13.4746 21.1556C13.469 21.0907 13.446 21.0286 13.4078 20.9758L13.4033 20.9695C13.0184 20.4129 12.9375 19.8105 12.9375 19.4062C12.9368 19.0232 13.0163 18.6441 13.1706 18.2935C13.2146 18.1941 13.2373 18.0866 13.2373 17.978C13.2373 17.8693 13.2146 17.7618 13.1706 17.6624C13.017 17.3048 12.9377 16.9197 12.9377 16.5306C12.9377 16.1414 13.017 15.7563 13.1706 15.3988C13.2144 15.2997 13.237 15.1926 13.237 15.0843C13.237 14.976 13.2144 14.8689 13.1706 14.7699C13.0177 14.4184 12.9388 14.0393 12.9388 13.656C12.9388 13.2728 13.0177 12.8936 13.1706 12.5422C13.2166 12.4383 13.2404 12.326 13.2404 12.2125C13.2404 12.0989 13.2166 11.9866 13.1706 11.8827C13.0104 11.5221 12.9308 11.1309 12.9375 10.7363C12.9375 10.368 13.0273 9.77949 13.2969 9.33521C13.3513 9.24366 13.3842 9.14091 13.3931 9.03475C13.402 8.92859 13.3866 8.82181 13.3481 8.72248C13.331 8.67756 13.3139 8.62949 13.2973 8.58008C13.2435 8.41217 13.2303 8.2339 13.2587 8.05988C13.3935 7.19109 13.6931 6.42967 14.0107 5.62691C14.149 5.27742 14.2923 4.91625 14.4249 4.53711C14.7007 3.74783 14.618 2.95586 14.198 2.36379Z" fill="#203C77"/>
</svg>
