<svg width="31" height="31" viewBox="0 0 31 31" fill="none" xmlns="http://www.w3.org/2000/svg">
<path d="M28.5818 20.2227L19.8533 19.8515C19.5742 19.8297 18.4062 19.7782 18.4062 18.2852C18.4062 16.8435 19.5663 16.7515 19.8679 16.7182L28.5818 16.3477C29.3489 16.3555 30.0312 17.2213 30.0312 18.2852C30.0312 19.349 29.3489 20.2148 28.5818 20.2227ZM20.0174 12.2504L26.4802 11.7461C27.2461 11.7461 28.0938 12.756 28.0938 13.7974V13.8174C28.0938 14.8055 27.4193 15.6108 26.5873 15.6211L20.021 15.5163C18.4063 15.3184 18.4062 14.3393 18.4062 13.9185C18.4062 12.5332 19.7262 12.2747 20.0174 12.2504ZM25.5417 29.0625L20.1306 28.5218C18.6484 28.4655 18.4062 27.4774 18.4062 26.858C18.4062 25.7451 19.2182 25.3685 20.021 25.3685L25.5308 25.1869C26.4112 25.2008 27.1244 26.0648 27.1244 27.1244C27.1244 28.184 26.4178 29.0419 25.5417 29.0625ZM27.6221 24.7334L19.969 24.3574C19.4004 24.3193 18.4062 24.1758 18.4062 22.7608C18.4062 22.0342 18.6696 21.2102 19.9199 21.0939L27.6209 20.859C28.4177 20.8675 29.0625 21.6758 29.0625 22.7602C29.0625 23.8446 28.4177 24.7237 27.6221 24.7328V24.7334Z" fill="black"/>
<path d="M8.43676 14.0977L8.4973 13.9766C8.40969 14.162 8.2664 14.3154 8.0874 14.4155C8.2278 14.3393 8.34766 14.2302 8.43676 14.0977Z" fill="black"/>
<path d="M19.1364 3.18598C18.5655 2.3807 17.6191 1.9375 16.4688 1.9375C16.2889 1.93748 16.1126 1.98755 15.9595 2.08208C15.8065 2.17661 15.6828 2.31188 15.6023 2.47273C15.4207 2.84025 14.679 3.92586 13.8955 5.0708C12.8057 6.665 11.4524 8.64731 10.5515 10.2052L10.5436 10.2191C9.30363 12.3679 8.70604 13.5449 8.49594 13.973L8.43539 14.0941C8.34573 14.2262 8.22545 14.3346 8.08482 14.4102C7.94534 14.4879 7.7886 14.5296 7.62891 14.5312H6.09647C5.42308 14.5312 4.7563 14.6639 4.13417 14.9216C3.51205 15.1793 2.94678 15.557 2.47062 16.0331C1.50899 16.9948 0.96875 18.299 0.96875 19.659V21.9967C0.968671 22.6701 1.10124 23.337 1.3589 23.9592C1.61656 24.5814 1.99425 25.1467 2.47041 25.6229C2.94657 26.0991 3.51187 26.4769 4.13403 26.7346C4.7562 26.9923 5.42303 27.125 6.09647 27.125H9.05055C9.25678 27.1258 9.45832 27.1866 9.63059 27.3C11.0195 28.207 13.6436 29.0625 16.4688 29.0625C16.9198 29.0625 17.3279 29.054 17.696 29.0395C17.7837 29.0364 17.8689 29.0095 17.9425 28.9617C18.0162 28.9139 18.0754 28.847 18.1139 28.7682C18.1525 28.6894 18.1689 28.6015 18.1614 28.5141C18.1539 28.4267 18.1228 28.3429 18.0714 28.2718L18.0654 28.2633C17.5465 27.5131 17.4375 26.7012 17.4375 26.1562C17.4366 25.6399 17.5436 25.1291 17.7517 24.6565C17.811 24.5225 17.8416 24.3777 17.8416 24.2312C17.8416 24.0847 17.811 23.9398 17.7517 23.8058C17.5446 23.3239 17.4378 22.8049 17.4378 22.2803C17.4378 21.7558 17.5446 21.2368 17.7517 20.7549C17.8107 20.6214 17.8412 20.477 17.8412 20.331C17.8412 20.1851 17.8107 20.0407 17.7517 19.9072C17.5457 19.4335 17.4393 18.9225 17.4393 18.4059C17.4393 17.8894 17.5457 17.3784 17.7517 16.9047C17.8137 16.7647 17.8457 16.6133 17.8457 16.4603C17.8457 16.3072 17.8137 16.1558 17.7517 16.0159C17.5357 15.5298 17.4284 15.0025 17.4375 14.4707C17.4375 13.9742 17.5586 13.1811 17.9219 12.5822C17.9953 12.4588 18.0396 12.3204 18.0516 12.1773C18.0636 12.0342 18.0428 11.8903 17.9909 11.7564C17.9679 11.6958 17.9449 11.6311 17.9225 11.5645C17.85 11.3381 17.8321 11.0979 17.8704 10.8633C18.052 9.69234 18.4559 8.66607 18.884 7.5841C19.0704 7.11305 19.2636 6.62625 19.4422 6.11523C19.814 5.05143 19.7026 3.98398 19.1364 3.18598Z" fill="black"/>
</svg>
