<svg width="32" height="32" viewBox="0 0 32 32" fill="none" xmlns="http://www.w3.org/2000/svg">
<rect width="32" height="32" rx="6" fill="#3E74D6"/>
<path d="M26.8 25.2L16.8 15.2L18.2 13.8L18.9 14.5C19 14.6 19.1 14.7 19.2 14.7C19.3 14.8 19.5 14.8 19.6 14.8C19.7 14.8 19.9 14.8 20 14.7C20.1 14.7 20.2 14.6 20.3 14.5L21 13.8C21.1 13.7 21.2 13.6 21.2 13.5C21.3 13.4 21.3 13.2 21.3 13.1C21.3 13 21.3 12.8 21.2 12.7C21.2 12.6 21.1 12.5 21 12.4L15.5 6.9C15.4 6.8 15.3 6.7 15.2 6.7C15.1 6.6 14.9 6.6 14.8 6.6C14.7 6.6 14.5 6.6 14.4 6.7C14.3 6.7 14.2 6.8 14.1 6.9L13.4 7.6C13 8 13 8.6 13.4 9L14.1 9.7L12.7 11.1C12.6 11 12.5 10.9 12.4 10.9C12.3 10.8 12.1 10.8 12 10.8C11.9 10.8 11.7 10.8 11.6 10.9C11.5 10.9 11.4 11 11.3 11.1C10.9 11.5 10.9 12.1 11.3 12.5L10 13.8L9.3 13.1C8.9 12.7 8.3 12.7 7.9 13.1L7.2 13.8C6.8 14.2 6.8 14.8 7.2 15.2L12.7 20.7C13.1 21.1 13.7 21.1 14.1 20.7L14.8 20C14.9 19.9 15 19.8 15.1 19.7C15.1 19.6 15.2 19.4 15.2 19.3C15.2 19.2 15.1 19 15.1 18.9C15 18.8 14.9 18.7 14.8 18.6L14.1 17.9L15.5 16.5L25.5 26.5C25.6 26.6 25.7 26.7 25.8 26.7C25.9 26.8 26.1 26.8 26.2 26.8C26.3 26.8 26.5 26.8 26.6 26.7C26.7 26.7 26.8 26.6 26.9 26.5C27.2 26.1 27.2 25.6 26.8 25.2ZM8.5 23.5C8 23.5 7.6 23.7 7.3 24C7 24.3 6.8 24.7 6.8 25.2V26H16V25.2C16 24.7 15.8 24.3 15.5 24C15.2 23.7 14.8 23.5 14.3 23.5H8.5Z" fill="white"/>
</svg>
